<svg width="26" height="26" viewBox="0 0 26 26" fill="none" xmlns="http://www.w3.org/2000/svg">
<rect width="26" height="26" rx="5" fill="#0685FF"/>
<g clip-path="url(#clip0_1217_183)">
<path d="M10.3938 5.05251C9.5958 5.09014 9.05086 5.21751 8.57443 5.40464C8.08143 5.59682 7.66349 5.85464 7.24768 6.27195C6.83193 6.68926 6.5758 7.10745 6.38505 7.60132C6.20043 8.0787 6.0753 8.62414 6.04005 9.42257C6.0048 10.221 5.99699 10.4777 6.00093 12.5144C6.0048 14.5511 6.0138 14.8064 6.05249 15.6065C6.09061 16.4043 6.21749 16.9491 6.40468 17.4257C6.59718 17.9188 6.85468 18.3365 7.27218 18.7524C7.68961 19.1684 8.10749 19.4239 8.60249 19.6149C9.07949 19.7993 9.62505 19.925 10.4234 19.9599C11.2217 19.9949 11.4786 20.0031 13.5147 19.9991C15.5509 19.9953 15.8072 19.9862 16.6071 19.9483C17.4071 19.9103 17.949 19.7825 18.4257 19.5962C18.9188 19.4033 19.3369 19.1462 19.7525 18.7286C20.1681 18.311 20.4241 17.8925 20.6147 17.3984C20.7995 16.9214 20.925 16.3759 20.9597 15.5781C20.9947 14.7776 21.0029 14.522 20.9991 12.4856C20.9951 10.4492 20.9859 10.1939 20.948 9.39407C20.9101 8.59426 20.783 8.05114 20.5959 7.57426C20.4032 7.0812 20.1459 6.66376 19.7287 6.24751C19.3114 5.83126 18.8925 5.57551 18.3986 5.38532C17.9212 5.20064 17.3761 5.07482 16.5777 5.04032C15.7794 5.00582 15.5225 4.99689 13.4856 5.00089C11.4487 5.00476 11.1937 5.01351 10.3938 5.05251ZM10.4814 18.6107C9.75018 18.5789 9.35311 18.4574 9.08849 18.3557C8.73811 18.2207 8.48849 18.0575 8.2248 17.7963C7.96105 17.5352 7.79911 17.2847 7.6623 16.9351C7.55955 16.6704 7.4358 16.2738 7.40161 15.5426C7.36443 14.7523 7.35661 14.5149 7.35224 12.5126C7.34786 10.5103 7.35555 10.2732 7.39018 9.48257C7.42143 8.75195 7.54368 8.35445 7.64518 8.08995C7.78018 7.73914 7.9428 7.48995 8.20455 7.22645C8.4663 6.96289 8.71605 6.80057 9.06599 6.66376C9.33036 6.56057 9.72693 6.43789 10.4579 6.40307C11.2488 6.36557 11.4858 6.35807 13.4879 6.3537C15.4899 6.34932 15.7275 6.35682 16.5188 6.3917C17.2494 6.42345 17.6471 6.54451 17.9113 6.6467C18.2618 6.7817 18.5113 6.94382 18.7748 7.20607C19.0384 7.4682 19.2008 7.71707 19.3376 8.06776C19.4409 8.33132 19.5637 8.72776 19.5982 9.4592C19.6358 10.2501 19.6444 10.4873 19.6479 12.4892C19.6516 14.4911 19.6445 14.7288 19.6098 15.5192C19.5779 16.2504 19.4567 16.6476 19.3548 16.9126C19.2198 17.2628 19.0571 17.5126 18.7952 17.7759C18.5333 18.0394 18.2839 18.2016 17.9337 18.3384C17.6697 18.4415 17.2727 18.5645 16.5424 18.5993C15.7514 18.6365 15.5144 18.6443 13.5116 18.6487C11.5087 18.6531 11.2724 18.6449 10.4814 18.6107ZM16.5956 8.49151C16.5959 8.66953 16.649 8.84346 16.7481 8.99131C16.8473 9.13916 16.9881 9.25428 17.1527 9.32211C17.3173 9.38994 17.4983 9.40744 17.6728 9.37239C17.8473 9.33735 18.0076 9.25132 18.1332 9.12521C18.2588 8.9991 18.3443 8.83855 18.3787 8.66389C18.413 8.48922 18.3949 8.30828 18.3264 8.14395C18.258 7.97962 18.1423 7.83927 17.9941 7.74067C17.8459 7.64207 17.6718 7.58964 17.4937 7.59001C17.2551 7.59051 17.0264 7.68575 16.858 7.85481C16.6896 8.02386 16.5952 8.25288 16.5956 8.49151ZM9.64905 12.5075C9.65324 14.6345 11.3807 16.3548 13.5072 16.3508C15.6338 16.3468 17.3553 14.6195 17.3513 12.4925C17.3472 10.3655 15.6194 8.6447 13.4926 8.64889C11.3657 8.65307 9.64505 10.3808 9.64905 12.5075ZM11 12.5048C10.999 12.0104 11.1447 11.5267 11.4186 11.1151C11.6925 10.7034 12.0823 10.3822 12.5387 10.1921C12.9951 10.002 13.4977 9.95146 13.9828 10.047C14.468 10.1425 14.9139 10.3797 15.2642 10.7286C15.6146 11.0775 15.8535 11.5225 15.951 12.0073C16.0484 12.492 15.9999 12.9948 15.8116 13.452C15.6233 13.9092 15.3036 14.3003 14.8931 14.5758C14.4825 14.8513 13.9994 14.9989 13.505 14.9999C13.1767 15.0006 12.8514 14.9366 12.5478 14.8116C12.2443 14.6865 11.9683 14.5029 11.7357 14.2712C11.503 14.0395 11.3183 13.7643 11.1921 13.4612C11.0659 13.1581 11.0006 12.8331 11 12.5048Z" fill="white"/>
</g>
<defs>
<clipPath id="clip0_1217_183">
<rect width="15" height="15" fill="white" transform="translate(6 5)"/>
</clipPath>
</defs>
</svg>
