<svg width="26" height="26" viewBox="0 0 26 26" fill="none" xmlns="http://www.w3.org/2000/svg">
<rect width="26" height="26" rx="5" fill="#0685FF"/>
<g clip-path="url(#clip0_1217_198)">
<path d="M18.4298 5.31982H7.57025C6.97368 5.32059 6.40177 5.55791 5.97993 5.97975C5.55809 6.40158 5.32077 6.9735 5.32001 7.57006V18.4296C5.32077 19.0262 5.55809 19.5981 5.97993 20.0199C6.40177 20.4417 6.97368 20.6791 7.57025 20.6798H18.4298C19.0263 20.6791 19.5982 20.4417 20.0201 20.0199C20.4419 19.5981 20.6792 19.0262 20.68 18.4296V7.57006C20.6792 6.9735 20.4419 6.40158 20.0201 5.97975C19.5982 5.55791 19.0263 5.32059 18.4298 5.31982ZM10.7498 17.5003H8.94977V11.1998H10.7498V17.5003ZM10.7498 10.3003H8.94977V8.5003H10.7498V10.3003ZM17.0502 17.5003H15.2502V13.9003C15.2372 13.6704 15.1367 13.4542 14.9694 13.2961C14.802 13.1379 14.5805 13.0498 14.3502 13.0498C14.12 13.0498 13.8985 13.1379 13.7311 13.2961C13.5637 13.4542 13.4633 13.6704 13.4502 13.9003V17.5003H11.6502V11.1998H13.4502V11.5387C13.9216 11.3928 14.2278 11.1998 14.8 11.1998C16.0211 11.2008 17.0502 12.2961 17.0502 13.5902V17.5003Z" fill="white"/>
</g>
<defs>
<clipPath id="clip0_1217_198">
<rect width="16" height="16" fill="white" transform="translate(5 5)"/>
</clipPath>
</defs>
</svg>
