<svg width="26" height="26" viewBox="0 0 26 26" fill="none" xmlns="http://www.w3.org/2000/svg">
<rect width="26" height="26" rx="5" fill="#0685FF"/>
<g clip-path="url(#clip0_1217_189)">
<path d="M13.6162 20H13.6119C11.3737 19.985 9.65312 19.2469 8.49687 17.8069C7.46875 16.525 6.9375 14.7413 6.92 12.5063V12.4956C6.93875 10.2587 7.46937 8.47688 8.49812 7.19438C9.65312 5.75312 11.375 5.015 13.6125 5H13.6212C15.3375 5.0125 16.7731 5.45312 17.8875 6.31125C18.9356 7.1175 19.6737 8.2675 20.0806 9.72813L18.8056 10.0837C18.1156 7.60875 16.3694 6.34375 13.6156 6.32437C11.7969 6.33812 10.4219 6.90937 9.52812 8.0225C8.69187 9.065 8.26 10.5712 8.24312 12.5C8.26 14.4288 8.69187 15.935 9.52875 16.9775C10.4225 18.0919 11.7981 18.6638 13.6162 18.6756C15.2556 18.6631 16.34 18.2812 17.2412 17.3975C18.2706 16.3894 18.2525 15.1519 17.9225 14.3988C17.7287 13.955 17.3769 13.5863 16.9012 13.305C16.7812 14.15 16.5125 14.8337 16.0987 15.35C15.545 16.0387 14.7612 16.415 13.7675 16.4688C13.0162 16.5094 12.2919 16.3325 11.7306 15.9681C11.0662 15.5375 10.6775 14.8806 10.6356 14.1156C10.595 13.3719 10.8906 12.6875 11.4669 12.1894C12.0169 11.7144 12.7912 11.435 13.7062 11.3825C14.3368 11.3431 14.9697 11.3729 15.5937 11.4713C15.515 11.0075 15.3594 10.6388 15.125 10.3731C14.8044 10.0069 14.3075 9.82125 13.6506 9.81687H13.6325C13.105 9.81687 12.3875 9.96188 11.9319 10.6419L10.8337 9.90438C11.4462 8.99563 12.4387 8.49437 13.6325 8.49437H13.66C15.6562 8.50688 16.8456 9.72875 16.9644 11.8619C17.0319 11.8906 17.0994 11.9206 17.165 11.9506C18.0962 12.3881 18.7775 13.0513 19.1362 13.8694C19.6344 15.0069 19.6806 16.8631 18.1687 18.3431C17.0125 19.4744 15.61 19.9856 13.6206 19.9994L13.6162 20ZM14.2431 12.6938C14.0919 12.6938 13.9387 12.6981 13.7812 12.7069C12.6337 12.7713 11.9187 13.2981 11.9587 14.0463C12.0006 14.8313 12.8662 15.1956 13.6987 15.1506C14.4637 15.11 15.46 14.8112 15.6275 12.8319C15.1722 12.7369 14.7082 12.6906 14.2431 12.6938Z" fill="white"/>
</g>
<defs>
<clipPath id="clip0_1217_189">
<rect width="15" height="15" fill="white" transform="translate(6 5)"/>
</clipPath>
</defs>
</svg>
