<svg width="26" height="26" viewBox="0 0 26 26" fill="none" xmlns="http://www.w3.org/2000/svg">
<rect width="26" height="26" rx="5" fill="#0685FF"/>
<g clip-path="url(#clip0_1217_195)">
<path d="M20.6653 9.12395C20.5749 8.78346 20.3967 8.47271 20.1484 8.22279C19.9001 7.97287 19.5905 7.79258 19.2507 7.69995C18.0033 7.36328 13 7.36328 13 7.36328C13 7.36328 7.99667 7.36328 6.74867 7.69995C6.40894 7.79274 6.09953 7.9731 5.85139 8.223C5.60324 8.4729 5.42506 8.78357 5.33467 9.12395C5 10.3799 5 12.9999 5 12.9999C5 12.9999 5 15.6199 5.33467 16.8759C5.42506 17.2164 5.60332 17.5272 5.85159 17.7771C6.09987 18.027 6.40945 18.2073 6.74933 18.2999C7.99667 18.6366 13 18.6366 13 18.6366C13 18.6366 18.0033 18.6366 19.2513 18.2999C19.5912 18.2074 19.9009 18.0271 20.1491 17.7772C20.3974 17.5273 20.5757 17.2165 20.666 16.8759C21 15.6199 21 12.9999 21 12.9999C21 12.9999 21 10.3799 20.6653 9.12395ZM11.3633 15.3786V10.6213L15.5453 12.9999L11.3633 15.3786Z" fill="white"/>
</g>
<defs>
<clipPath id="clip0_1217_195">
<rect width="16" height="12" fill="white" transform="translate(5 7)"/>
</clipPath>
</defs>
</svg>
