<?xml version="1.0" encoding="UTF-8" standalone="no"?>
<!DOCTYPE svg PUBLIC "-//W3C//DTD SVG 1.1//EN" "http://www.w3.org/Graphics/SVG/1.1/DTD/svg11.dtd">
<svg width="100%" height="100%" viewBox="0 0 2500 2500" version="1.1" xmlns="http://www.w3.org/2000/svg" xmlns:xlink="http://www.w3.org/1999/xlink" xml:space="preserve" xmlns:serif="http://www.serif.com/" style="fill-rule:evenodd;clip-rule:evenodd;stroke-linejoin:round;stroke-miterlimit:2;">
    <g transform="matrix(1,0,0,1,-27255,-28549.5)">
        <g transform="matrix(0.995223,0,0,0.956755,21208.025478,28549.5)">
            <g transform="matrix(4.721805,0,0,4.911654,5235.518797,-9617.018797)">
                <path d="M394.335,2488.823C394.554,2488.998 394.639,2489.292 394.547,2489.557C394.454,2489.822 394.204,2490 393.924,2490C375.317,2490 225.88,2490 225.88,2490C199.437,2490 178,2468.563 178,2442.12L178,2005.88C178,1979.437 199.437,1958 225.88,1958L662.12,1958C688.563,1958 710,1979.437 710,2005.88L710,2229.103C705.9,2213.585 701.763,2198.117 697.603,2182.745C695.811,2176.086 692.135,2162.841 690.354,2156.167L686.684,2142.89C684.779,2136.191 679.606,2130.414 672.464,2128.176C661.192,2124.644 649.192,2130.918 645.661,2142.189C645.656,2142.2 640.542,2158.554 640.531,2158.562C621.999,2218.218 603.451,2279.044 585.808,2338.903C584.671,2342.744 583.273,2347.499 581.74,2352.732C581.67,2352.969 581.458,2353.137 581.212,2353.15C580.965,2353.163 580.736,2353.019 580.642,2352.79C564.661,2314.068 548.29,2275.087 532.023,2237.116C528.352,2226.577 513.846,2225.401 508.748,2235.524L500.846,2251.532C494.027,2265.509 486.438,2280.793 479.597,2295.008C479.597,2295.008 436.069,2383.443 431.51,2392.706C431.286,2393.161 431.413,2393.711 431.814,2394.021C433.263,2395.142 436.626,2397.742 438.275,2399.017C438.515,2399.203 438.824,2399.277 439.123,2399.222C439.422,2399.166 439.683,2398.985 439.84,2398.725C445.834,2388.818 493.319,2310.326 493.684,2309.731C500.84,2297.999 508.653,2285.339 516.051,2273.133C516.168,2272.939 516.387,2272.831 516.613,2272.856C516.838,2272.881 517.028,2273.034 517.101,2273.248C528.203,2306.041 540.617,2341.984 551.933,2374.266C556.929,2388.443 561.912,2402.625 566.966,2416.781C568.806,2421.847 572.884,2426.143 578.389,2427.989C588.248,2431.333 598.92,2425.683 601.835,2415.722L612.744,2383.232C630.147,2331.149 647.399,2278.183 664.218,2225.484C664.314,2225.186 664.593,2224.985 664.906,2224.99C665.219,2224.994 665.493,2225.203 665.579,2225.504C668.949,2237.233 672.331,2248.892 675.679,2260.287C685.796,2294.879 696.817,2331.451 707.457,2365.829C708.016,2368.018 708.889,2369.95 710,2371.619L710,2442.12C710,2468.563 688.563,2490 662.12,2490L477.453,2490C477.156,2490 476.867,2489.902 476.631,2489.722C457.299,2474.985 438.453,2459.752 421.161,2443.298C412.607,2435.236 403.479,2425.986 395.548,2417.282C379.508,2399.804 364.42,2381.572 352.559,2361.076C326.4,2316.618 312.562,2264.49 315.392,2212.886C316.216,2200.363 317.83,2187.671 320.751,2175.467C321.065,2174.238 321.893,2170.686 322.182,2169.527C322.553,2168.204 323.549,2165.048 323.922,2163.655C351.204,2075.514 443.187,2010.628 535.637,2015.16C561.342,2016.889 586.119,2025.438 609.443,2036.154C637.886,2049.35 664.476,2066.31 689.615,2085.03L693.462,2087.898L693.505,2087.932C695.324,2089.292 697.896,2089.328 699.78,2087.862C702.032,2086.104 702.434,2082.852 700.679,2080.598C686.502,2062.447 670.231,2045.755 652.687,2030.749C621.192,2004.201 584.741,1981.815 543.918,1973.331C465.886,1958.184 383.437,1988.87 327.543,2043.897C308.123,2063.018 291.777,2085.124 279.269,2109.433C278.071,2111.881 275.685,2116.914 274.502,2119.362C272.958,2122.749 271.137,2127.369 269.669,2130.806C267.99,2135.574 266.054,2140.322 264.652,2145.186L263.037,2150.496L262.236,2153.154L261.556,2155.849C260.836,2159.042 259.531,2163.44 258.978,2166.617C255.952,2180.668 254.15,2195.197 253.377,2209.543C251.4,2248.711 257.554,2288.211 270.508,2325.184C282.242,2358.498 299.504,2389.917 321.541,2417.523C328.923,2426.794 337.487,2436.055 345.675,2444.555C353.486,2452.676 362.788,2461.68 371.226,2469.229C378.696,2475.993 386.419,2482.518 394.335,2488.823Z" style="fill:rgb(98,4,167);"/>
            </g>
        </g>
    </g>
</svg>
